<mxfile host="Electron" agent="Mozilla/5.0 (Windows NT 10.0; Win64; x64) AppleWebKit/537.36 (KHTML, like Gecko) draw.io/27.0.9 Chrome/134.0.6998.205 Electron/35.4.0 Safari/537.36" version="27.0.9">
  <diagram name="Page-1" id="Ol2hbcv2_hAOC3EKdCdv">
    <mxGraphModel dx="1857" dy="613" grid="1" gridSize="10" guides="1" tooltips="1" connect="1" arrows="1" fold="1" page="1" pageScale="1" pageWidth="850" pageHeight="1100" math="0" shadow="0">
      <root>
        <mxCell id="0" />
        <mxCell id="1" parent="0" />
        <mxCell id="ctD18hmymJ6ulTxQ7-wz-1" value="&lt;font style=&quot;font-size: 22px;&quot;&gt;Integration Model &lt;/font&gt;&lt;font style=&quot;font-size: 12px;&quot;&gt;(how to tables are related)&lt;/font&gt;" style="rounded=0;whiteSpace=wrap;html=1;fontSize=20;strokeColor=none;fontStyle=1;glass=1;" vertex="1" parent="1">
          <mxGeometry x="-100" y="20" width="450" height="30" as="geometry" />
        </mxCell>
        <mxCell id="ctD18hmymJ6ulTxQ7-wz-2" value="&lt;font&gt;crm_sales_details&lt;/font&gt;" style="swimlane;fontStyle=0;childLayout=stackLayout;horizontal=1;startSize=26;fillColor=#dae8fc;horizontalStack=0;resizeParent=1;resizeParentMax=0;resizeLast=0;collapsible=1;marginBottom=0;html=1;rounded=1;strokeColor=#6c8ebf;" vertex="1" parent="1">
          <mxGeometry x="40" y="310" width="150" height="78" as="geometry" />
        </mxCell>
        <mxCell id="ctD18hmymJ6ulTxQ7-wz-3" value="&lt;font&gt;prd_key&lt;/font&gt;" style="text;strokeColor=none;fillColor=none;align=left;verticalAlign=top;spacingLeft=4;spacingRight=4;overflow=hidden;rotatable=0;points=[[0,0.5],[1,0.5]];portConstraint=eastwest;whiteSpace=wrap;html=1;" vertex="1" parent="ctD18hmymJ6ulTxQ7-wz-2">
          <mxGeometry y="26" width="150" height="26" as="geometry" />
        </mxCell>
        <mxCell id="ctD18hmymJ6ulTxQ7-wz-4" value="&lt;font&gt;cst_id&lt;/font&gt;" style="text;strokeColor=none;fillColor=none;align=left;verticalAlign=top;spacingLeft=4;spacingRight=4;overflow=hidden;rotatable=0;points=[[0,0.5],[1,0.5]];portConstraint=eastwest;whiteSpace=wrap;html=1;" vertex="1" parent="ctD18hmymJ6ulTxQ7-wz-2">
          <mxGeometry y="52" width="150" height="26" as="geometry" />
        </mxCell>
        <mxCell id="ctD18hmymJ6ulTxQ7-wz-13" value="&lt;font&gt;crm_prd_info&lt;/font&gt;" style="swimlane;fontStyle=0;childLayout=stackLayout;horizontal=1;startSize=26;fillColor=#dae8fc;horizontalStack=0;resizeParent=1;resizeParentMax=0;resizeLast=0;collapsible=1;marginBottom=0;html=1;rounded=1;strokeColor=#6c8ebf;" vertex="1" parent="1">
          <mxGeometry x="240" y="250" width="150" height="74" as="geometry" />
        </mxCell>
        <mxCell id="ctD18hmymJ6ulTxQ7-wz-14" value="&lt;font&gt;prd_key&lt;/font&gt;" style="text;strokeColor=none;fillColor=none;align=left;verticalAlign=top;spacingLeft=4;spacingRight=4;overflow=hidden;rotatable=0;points=[[0,0.5],[1,0.5]];portConstraint=eastwest;whiteSpace=wrap;html=1;" vertex="1" parent="ctD18hmymJ6ulTxQ7-wz-13">
          <mxGeometry y="26" width="150" height="26" as="geometry" />
        </mxCell>
        <mxCell id="ctD18hmymJ6ulTxQ7-wz-47" value="&lt;b style=&quot;&quot;&gt;&lt;font&gt;PRODUCT&lt;/font&gt;&lt;/b&gt;" style="text;html=1;align=center;verticalAlign=middle;whiteSpace=wrap;rounded=0;fillColor=#f8cecc;strokeColor=#b85450;" vertex="1" parent="ctD18hmymJ6ulTxQ7-wz-13">
          <mxGeometry y="52" width="150" height="22" as="geometry" />
        </mxCell>
        <mxCell id="ctD18hmymJ6ulTxQ7-wz-16" value="&lt;font&gt;crm_cust_info&lt;/font&gt;" style="swimlane;fontStyle=0;childLayout=stackLayout;horizontal=1;startSize=26;fillColor=#dae8fc;horizontalStack=0;resizeParent=1;resizeParentMax=0;resizeLast=0;collapsible=1;marginBottom=0;html=1;rounded=1;strokeColor=#6c8ebf;" vertex="1" parent="1">
          <mxGeometry x="240" y="400" width="150" height="78" as="geometry" />
        </mxCell>
        <mxCell id="ctD18hmymJ6ulTxQ7-wz-18" value="&lt;font&gt;cst_id&lt;/font&gt;" style="text;strokeColor=none;fillColor=none;align=left;verticalAlign=top;spacingLeft=4;spacingRight=4;overflow=hidden;rotatable=0;points=[[0,0.5],[1,0.5]];portConstraint=eastwest;whiteSpace=wrap;html=1;" vertex="1" parent="ctD18hmymJ6ulTxQ7-wz-16">
          <mxGeometry y="26" width="150" height="26" as="geometry" />
        </mxCell>
        <mxCell id="ctD18hmymJ6ulTxQ7-wz-17" value="&lt;font&gt;cst_key&lt;/font&gt;" style="text;strokeColor=none;fillColor=none;align=left;verticalAlign=top;spacingLeft=4;spacingRight=4;overflow=hidden;rotatable=0;points=[[0,0.5],[1,0.5]];portConstraint=eastwest;whiteSpace=wrap;html=1;" vertex="1" parent="ctD18hmymJ6ulTxQ7-wz-16">
          <mxGeometry y="52" width="150" height="26" as="geometry" />
        </mxCell>
        <mxCell id="ctD18hmymJ6ulTxQ7-wz-19" value="&lt;font&gt;erp_px_cat_g1v2&lt;/font&gt;" style="swimlane;fontStyle=0;childLayout=stackLayout;horizontal=1;startSize=26;fillColor=#ffe6cc;horizontalStack=0;resizeParent=1;resizeParentMax=0;resizeLast=0;collapsible=1;marginBottom=0;html=1;rounded=1;strokeColor=#d79b00;" vertex="1" parent="1">
          <mxGeometry x="550" y="240" width="150" height="76" as="geometry" />
        </mxCell>
        <mxCell id="ctD18hmymJ6ulTxQ7-wz-21" value="&lt;font&gt;id&lt;/font&gt;" style="text;strokeColor=none;fillColor=none;align=left;verticalAlign=top;spacingLeft=4;spacingRight=4;overflow=hidden;rotatable=0;points=[[0,0.5],[1,0.5]];portConstraint=eastwest;whiteSpace=wrap;html=1;" vertex="1" parent="ctD18hmymJ6ulTxQ7-wz-19">
          <mxGeometry y="26" width="150" height="26" as="geometry" />
        </mxCell>
        <mxCell id="ctD18hmymJ6ulTxQ7-wz-48" value="&lt;b style=&quot;&quot;&gt;&lt;font&gt;PRODUCT&lt;/font&gt;&lt;/b&gt;" style="text;html=1;align=center;verticalAlign=middle;whiteSpace=wrap;rounded=0;fillColor=#f8cecc;strokeColor=#b85450;" vertex="1" parent="ctD18hmymJ6ulTxQ7-wz-19">
          <mxGeometry y="52" width="150" height="24" as="geometry" />
        </mxCell>
        <mxCell id="ctD18hmymJ6ulTxQ7-wz-25" value="" style="endArrow=classic;html=1;rounded=0;entryX=0;entryY=0.5;entryDx=0;entryDy=0;exitX=0.999;exitY=0.563;exitDx=0;exitDy=0;exitPerimeter=0;" edge="1" parent="1" source="ctD18hmymJ6ulTxQ7-wz-3" target="ctD18hmymJ6ulTxQ7-wz-14">
          <mxGeometry width="50" height="50" relative="1" as="geometry">
            <mxPoint x="190" y="360" as="sourcePoint" />
            <mxPoint x="230" y="280" as="targetPoint" />
            <Array as="points">
              <mxPoint x="210" y="350" />
              <mxPoint x="210" y="290" />
            </Array>
          </mxGeometry>
        </mxCell>
        <mxCell id="ctD18hmymJ6ulTxQ7-wz-26" value="" style="endArrow=classic;html=1;rounded=0;entryX=0;entryY=0.568;entryDx=0;entryDy=0;entryPerimeter=0;" edge="1" parent="1" target="ctD18hmymJ6ulTxQ7-wz-18">
          <mxGeometry width="50" height="50" relative="1" as="geometry">
            <mxPoint x="190" y="369" as="sourcePoint" />
            <mxPoint x="210" y="440" as="targetPoint" />
            <Array as="points">
              <mxPoint x="210" y="369" />
              <mxPoint x="210" y="440" />
            </Array>
          </mxGeometry>
        </mxCell>
        <mxCell id="ctD18hmymJ6ulTxQ7-wz-27" value="&lt;font&gt;erp_cust_az12&lt;/font&gt;" style="swimlane;fontStyle=0;childLayout=stackLayout;horizontal=1;startSize=26;fillColor=#ffe6cc;horizontalStack=0;resizeParent=1;resizeParentMax=0;resizeLast=0;collapsible=1;marginBottom=0;html=1;rounded=1;strokeColor=#d79b00;" vertex="1" parent="1">
          <mxGeometry x="550" y="380" width="150" height="52" as="geometry" />
        </mxCell>
        <mxCell id="ctD18hmymJ6ulTxQ7-wz-28" value="&lt;font&gt;cid&lt;/font&gt;" style="text;strokeColor=none;fillColor=none;align=left;verticalAlign=top;spacingLeft=4;spacingRight=4;overflow=hidden;rotatable=0;points=[[0,0.5],[1,0.5]];portConstraint=eastwest;whiteSpace=wrap;html=1;" vertex="1" parent="ctD18hmymJ6ulTxQ7-wz-27">
          <mxGeometry y="26" width="150" height="26" as="geometry" />
        </mxCell>
        <mxCell id="ctD18hmymJ6ulTxQ7-wz-29" value="&lt;font&gt;erp_loc_a101&lt;/font&gt;" style="swimlane;fontStyle=0;childLayout=stackLayout;horizontal=1;startSize=26;fillColor=#ffe6cc;horizontalStack=0;resizeParent=1;resizeParentMax=0;resizeLast=0;collapsible=1;marginBottom=0;html=1;rounded=1;strokeColor=#d79b00;" vertex="1" parent="1">
          <mxGeometry x="550" y="470" width="150" height="52" as="geometry" />
        </mxCell>
        <mxCell id="ctD18hmymJ6ulTxQ7-wz-30" value="&lt;font&gt;cid&lt;/font&gt;" style="text;strokeColor=none;fillColor=none;align=left;verticalAlign=top;spacingLeft=4;spacingRight=4;overflow=hidden;rotatable=0;points=[[0,0.5],[1,0.5]];portConstraint=eastwest;whiteSpace=wrap;html=1;" vertex="1" parent="ctD18hmymJ6ulTxQ7-wz-29">
          <mxGeometry y="26" width="150" height="26" as="geometry" />
        </mxCell>
        <mxCell id="ctD18hmymJ6ulTxQ7-wz-36" value="" style="endArrow=classic;html=1;rounded=0;entryX=1;entryY=0.5;entryDx=0;entryDy=0;exitX=0;exitY=0.5;exitDx=0;exitDy=0;" edge="1" parent="1" source="ctD18hmymJ6ulTxQ7-wz-21" target="ctD18hmymJ6ulTxQ7-wz-14">
          <mxGeometry width="50" height="50" relative="1" as="geometry">
            <mxPoint x="400" y="360" as="sourcePoint" />
            <mxPoint x="450" y="310" as="targetPoint" />
            <Array as="points">
              <mxPoint x="480" y="279" />
              <mxPoint x="480" y="290" />
            </Array>
          </mxGeometry>
        </mxCell>
        <mxCell id="ctD18hmymJ6ulTxQ7-wz-37" value="" style="endArrow=classic;html=1;rounded=0;entryX=1;entryY=0.5;entryDx=0;entryDy=0;exitX=0;exitY=0.5;exitDx=0;exitDy=0;" edge="1" parent="1" source="ctD18hmymJ6ulTxQ7-wz-28" target="ctD18hmymJ6ulTxQ7-wz-17">
          <mxGeometry width="50" height="50" relative="1" as="geometry">
            <mxPoint x="420" y="369" as="sourcePoint" />
            <mxPoint x="410" y="446" as="targetPoint" />
            <Array as="points">
              <mxPoint x="460" y="420" />
              <mxPoint x="460" y="465" />
            </Array>
          </mxGeometry>
        </mxCell>
        <mxCell id="ctD18hmymJ6ulTxQ7-wz-39" value="" style="endArrow=classic;html=1;rounded=0;entryX=1;entryY=0.5;entryDx=0;entryDy=0;exitX=0;exitY=0.5;exitDx=0;exitDy=0;" edge="1" parent="1" target="ctD18hmymJ6ulTxQ7-wz-17">
          <mxGeometry width="50" height="50" relative="1" as="geometry">
            <mxPoint x="550" y="510" as="sourcePoint" />
            <mxPoint x="390" y="556" as="targetPoint" />
            <Array as="points">
              <mxPoint x="460" y="511" />
              <mxPoint x="460" y="465" />
            </Array>
          </mxGeometry>
        </mxCell>
        <mxCell id="ctD18hmymJ6ulTxQ7-wz-40" value="&lt;font style=&quot;font-size: 10px;&quot;&gt;Transactional records about Sales and Orders&lt;/font&gt;" style="text;html=1;align=center;verticalAlign=middle;whiteSpace=wrap;rounded=0;" vertex="1" parent="1">
          <mxGeometry x="40" y="280" width="160" height="30" as="geometry" />
        </mxCell>
        <mxCell id="ctD18hmymJ6ulTxQ7-wz-41" value="&lt;font style=&quot;font-size: 10px;&quot;&gt;Current and History Product details&lt;/font&gt;" style="text;html=1;align=center;verticalAlign=middle;whiteSpace=wrap;rounded=0;" vertex="1" parent="1">
          <mxGeometry x="235" y="220" width="160" height="30" as="geometry" />
        </mxCell>
        <mxCell id="ctD18hmymJ6ulTxQ7-wz-42" value="&lt;font style=&quot;font-size: 10px;&quot;&gt;Customer Information&lt;/font&gt;" style="text;html=1;align=center;verticalAlign=middle;whiteSpace=wrap;rounded=0;" vertex="1" parent="1">
          <mxGeometry x="235" y="370" width="160" height="30" as="geometry" />
        </mxCell>
        <mxCell id="ctD18hmymJ6ulTxQ7-wz-43" value="&lt;font style=&quot;font-size: 10px;&quot;&gt;Product Categories&lt;/font&gt;" style="text;html=1;align=center;verticalAlign=middle;whiteSpace=wrap;rounded=0;" vertex="1" parent="1">
          <mxGeometry x="545" y="210" width="160" height="30" as="geometry" />
        </mxCell>
        <mxCell id="ctD18hmymJ6ulTxQ7-wz-44" value="&lt;font style=&quot;font-size: 10px;&quot;&gt;Extra Customer Information(Birthdate)&lt;/font&gt;" style="text;html=1;align=center;verticalAlign=middle;whiteSpace=wrap;rounded=0;" vertex="1" parent="1">
          <mxGeometry x="545" y="350" width="160" height="30" as="geometry" />
        </mxCell>
        <mxCell id="ctD18hmymJ6ulTxQ7-wz-46" value="&lt;font style=&quot;font-size: 10px;&quot;&gt;Location of Customer(Country)&lt;/font&gt;" style="text;html=1;align=center;verticalAlign=middle;whiteSpace=wrap;rounded=0;" vertex="1" parent="1">
          <mxGeometry x="545" y="440" width="160" height="30" as="geometry" />
        </mxCell>
        <mxCell id="ctD18hmymJ6ulTxQ7-wz-49" value="" style="rounded=1;whiteSpace=wrap;html=1;fillColor=none;dashed=1;" vertex="1" parent="1">
          <mxGeometry x="20" y="170" width="400" height="400" as="geometry" />
        </mxCell>
        <mxCell id="ctD18hmymJ6ulTxQ7-wz-50" value="" style="rounded=1;whiteSpace=wrap;html=1;fillColor=none;dashed=1;" vertex="1" parent="1">
          <mxGeometry x="490" y="170" width="280" height="400" as="geometry" />
        </mxCell>
        <mxCell id="ctD18hmymJ6ulTxQ7-wz-51" value="&lt;font style=&quot;font-size: 20px;&quot;&gt;CRM&lt;/font&gt;" style="text;html=1;align=center;verticalAlign=middle;whiteSpace=wrap;rounded=1;fillColor=#dae8fc;strokeColor=#6c8ebf;" vertex="1" parent="1">
          <mxGeometry x="165" y="150" width="110" height="30" as="geometry" />
        </mxCell>
        <mxCell id="ctD18hmymJ6ulTxQ7-wz-52" value="&lt;font style=&quot;font-size: 20px;&quot;&gt;ERP&lt;/font&gt;" style="text;html=1;align=center;verticalAlign=middle;whiteSpace=wrap;rounded=1;fillColor=#fff2cc;strokeColor=#d6b656;" vertex="1" parent="1">
          <mxGeometry x="575" y="150" width="110" height="30" as="geometry" />
        </mxCell>
      </root>
    </mxGraphModel>
  </diagram>
</mxfile>
